<svg width="400" height="300" xmlns="http://www.w3.org/2000/svg">
  <rect width="400" height="300" fill="#f8f9fa"/>
  <rect x="50" y="60" width="300" height="180" rx="12" fill="#3498db" opacity="0.3"/>
  <rect x="70" y="80" width="260" height="140" rx="8" fill="#2980b9" opacity="0.2"/>
  <rect x="80" y="40" width="80" height="40" rx="6" fill="#2c3e50"/>
  <rect x="85" y="45" width="70" height="15" rx="2" fill="#27ae60"/>
  <rect x="85" y="62" width="50" height="8" rx="1" fill="#e74c3c"/>
  <circle cx="120" cy="120" r="8" fill="#f39c12"/>
  <line x1="120" y1="112" x2="120" y2="80" stroke="#34495e" stroke-width="3"/>
  <rect x="200" y="40" width="60" height="30" rx="4" fill="#8e44ad"/>
  <rect x="280" y="40" width="60" height="30" rx="4" fill="#e67e22"/>
  <line x1="230" y1="70" x2="230" y2="100" stroke="#9b59b6" stroke-width="3"/>
  <line x1="310" y1="70" x2="310" y2="100" stroke="#d35400" stroke-width="3"/>
  <rect x="150" y="250" width="100" height="30" rx="6" fill="#95a5a6"/>
  <text x="200" y="20" font-family="Arial, sans-serif" font-size="16" font-weight="bold" text-anchor="middle" fill="#2c3e50">HYDROPONIC EC AUTOMATION</text>
  <text x="120" y="270" font-family="Arial, sans-serif" font-size="10" text-anchor="middle" fill="#7f8c8d">EC SENSOR</text>
  <text x="230" y="270" font-family="Arial, sans-serif" font-size="10" text-anchor="middle" fill="#7f8c8d">NUTRIENT A</text>
  <text x="310" y="270" font-family="Arial, sans-serif" font-size="10" text-anchor="middle" fill="#7f8c8d">NUTRIENT B</text>
  <text x="200" y="270" font-family="Arial, sans-serif" font-size="10" text-anchor="middle" fill="#7f8c8d">ARDUINO CONTROL</text>
</svg>