<svg width="400" height="300" xmlns="http://www.w3.org/2000/svg">
  <rect width="400" height="300" fill="#f8f9fa"/>
  <rect x="80" y="120" width="240" height="120" rx="12" fill="#2c3e50"/>
  <rect x="90" y="130" width="220" height="80" rx="8" fill="#34495e"/>
  <rect x="100" y="140" width="180" height="60" rx="4" fill="#3498db"/>
  <rect x="290" y="145" width="25" height="50" rx="3" fill="#27ae60"/>
  <circle cx="302" cy="155" r="3" fill="#2ecc71"/>
  <circle cx="302" cy="175" r="3" fill="#e74c3c"/>
  <circle cx="302" cy="185" r="3" fill="#f39c12"/>
  <rect x="90" y="220" width="220" height="15" rx="7" fill="#95a5a6"/>
  <rect x="100" y="225" width="50" height="5" rx="2" fill="#bdc3c7"/>
  <rect x="160" y="225" width="50" height="5" rx="2" fill="#bdc3c7"/>
  <rect x="220" y="225" width="50" height="5" rx="2" fill="#bdc3c7"/>
  <rect x="140" y="80" width="120" height="30" rx="6" fill="#e67e22"/>
  <rect x="145" y="85" width="110" height="20" rx="3" fill="#d35400"/>
  <text x="200" y="20" font-family="Arial, sans-serif" font-size="16" font-weight="bold" text-anchor="middle" fill="#2c3e50">OCTOPI LAPTOP</text>
  <text x="200" y="100" font-family="Arial, sans-serif" font-size="12" text-anchor="middle" fill="#ecf0f1">OCTOPRINT</text>
  <text x="200" y="170" font-family="Arial, sans-serif" font-size="10" text-anchor="middle" fill="#ecf0f1">TOUCH DISPLAY</text>
  <text x="200" y="250" font-family="Arial, sans-serif" font-size="10" text-anchor="middle" fill="#7f8c8d">PORTABLE KEYBOARD</text>
  <text x="302" y="275" font-family="Arial, sans-serif" font-size="8" text-anchor="middle" fill="#7f8c8d">PORTS</text>
</svg>