<svg width="400" height="300" xmlns="http://www.w3.org/2000/svg">
  <rect width="400" height="300" fill="#f8f9fa"/>
  <rect x="150" y="120" width="100" height="120" rx="12" fill="#2c3e50"/>
  <rect x="160" y="130" width="80" height="20" rx="4" fill="#3498db"/>
  <rect x="160" y="160" width="80" height="15" rx="3" fill="#27ae60"/>
  <rect x="160" y="185" width="80" height="15" rx="3" fill="#e74c3c"/>
  <rect x="160" y="210" width="80" height="15" rx="3" fill="#f39c12"/>
  <rect x="170" y="90" width="60" height="30" rx="6" fill="#f39c12"/>
  <rect x="175" y="95" width="50" height="20" rx="2" fill="#f1c40f"/>
  <circle cx="200" cy="70" r="12" fill="#e67e22"/>
  <circle cx="200" cy="70" r="8" fill="#d35400"/>
  <path d="M180 70 Q160 50 140 70" stroke="#3498db" stroke-width="3" fill="none"/>
  <path d="M220 70 Q240 50 260 70" stroke="#3498db" stroke-width="3" fill="none"/>
  <path d="M200 55 Q220 35 240 55" stroke="#3498db" stroke-width="3" fill="none"/>
  <circle cx="80" cy="80" r="3" fill="#95a5a6"/>
  <circle cx="320" cy="90" r="3" fill="#95a5a6"/>
  <circle cx="100" cy="200" r="3" fill="#95a5a6"/>
  <circle cx="300" cy="180" r="3" fill="#95a5a6"/>
  <path d="M83 80 Q120 100 150 140" stroke="#bdc3c7" stroke-width="1" fill="none" stroke-dasharray="3,2"/>
  <path d="M317 90 Q280 110 250 140" stroke="#bdc3c7" stroke-width="1" fill="none" stroke-dasharray="3,2"/>
  <text x="200" y="20" font-family="Arial, sans-serif" font-size="16" font-weight="bold" text-anchor="middle" fill="#2c3e50">SENTINEL SENSOR</text>
  <text x="50" y="280" font-family="Arial, sans-serif" font-size="10" text-anchor="start" fill="#7f8c8d">• CO₂ MONITORING</text>
  <text x="200" y="280" font-family="Arial, sans-serif" font-size="10" text-anchor="start" fill="#7f8c8d">• SOLAR POWERED</text>
  <text x="300" y="280" font-family="Arial, sans-serif" font-size="10" text-anchor="start" fill="#7f8c8d">• IoT NETWORK</text>
</svg>